<svg xmlns="http://www.w3.org/2000/svg" viewBox="0 0 64 64" fill="none">
  <defs>
    <linearGradient id="bgBold" x1="8" y1="6" x2="57" y2="58" gradientUnits="userSpaceOnUse">
      <stop stop-color="#22B0FF"/>
      <stop offset="0.55" stop-color="#0A84F5"/>
      <stop offset="1" stop-color="#004FC0"/>
    </linearGradient>
    <linearGradient id="pinBold" x1="32" y1="13" x2="32" y2="48" gradientUnits="userSpaceOnUse">
      <stop stop-color="#FFFFFF"/>
      <stop offset="1" stop-color="#DFF2FF"/>
    </linearGradient>
  </defs>

  <rect x="4" y="4" width="56" height="56" rx="16" fill="url(#bgBold)"/>
  <rect x="5" y="5" width="54" height="54" rx="15" stroke="rgba(255,255,255,0.18)"/>

  <circle cx="49.5" cy="14.5" r="4.5" fill="#9BE15D"/>

  <path d="M32 13C24.27 13 18 19.27 18 27C18 38.25 32 50.75 32 50.75C32 50.75 46 38.25 46 27C46 19.27 39.73 13 32 13Z" fill="url(#pinBold)"/>
  <circle cx="32" cy="27" r="6.8" fill="#0568D6"/>
  <path d="M23.5 18.9C25.54 16.72 28.47 15.5 31.65 15.5" stroke="#8ED2FF" stroke-width="2.2" stroke-linecap="round"/>
  <path d="M21.5 45L26.9 40.4" stroke="#8ED2FF" stroke-width="2.4" stroke-linecap="round"/>
  <path d="M42.5 45L37.1 40.4" stroke="#8ED2FF" stroke-width="2.4" stroke-linecap="round"/>
</svg>
